<svg version="1.1" xmlns="http://www.w3.org/2000/svg" xmlns:xlink="http://www.w3.org/1999/xlink" width="81" height="75"><defs/><g><path fill="rgb(255,255,255)" stroke="none" paint-order="stroke fill markers" fill-rule="evenodd" d=" M 66.42910766601562 9.134021639823914 C 66.42910766601562 9.134021639823914 64.95693969726562 10.5889333486557 64.95693969726562 10.5889333486557 C 64.95693969726562 10.5889333486557 52.94224548339844 22.4635146856308 52.94224548339844 22.4635146856308 C 52.94224548339844 22.4635146856308 51.88160705566406 23.511885046958923 51.88160705566406 23.511885046958923 C 51.88160705566406 23.511885046958923 49.253929138183594 26.108984351158142 49.253929138183594 26.108984351158142 C 49.253929138183594 26.108984351158142 39.28131866455078 35.965378284454346 39.28131866455078 35.965378284454346 C 39.28131866455078 35.965378284454346 38.91716766357422 36.32538330554962 38.91716766357422 36.32538330554962 C 38.91716766357422 36.32538330554962 38.31566619873047 35.73083519935608 38.31566619873047 35.73083519935608 C 38.31566619873047 35.73083519935608 29.735916137695312 27.251171946525574 29.735916137695312 27.251171946525574 C 28.27965545654297 29.2384592294693 27.39319610595703 31.64717948436737 27.29821014404297 34.24427878856659 C 27.29821014404297 34.24427878856659 33.55091857910156 40.42467522621155 33.55091857910156 40.42467522621155 C 33.55091857910156 40.42467522621155 36.17859649658203 43.02177453041077 36.17859649658203 43.02177453041077 C 36.17859649658203 43.02177453041077 36.8909912109375 43.72577607631683 36.8909912109375 43.72577607631683 C 37.44499969482422 44.273043274879456 38.18909454345703 44.55486726760864 38.91716766357422 44.55486726760864 C 39.043853759765625 44.55486726760864 39.154518127441406 44.539231061935425 39.28131866455078 44.52322256565094 C 39.88270568847656 44.44504153728485 40.48432159423828 44.17922604084015 40.943458557128906 43.72577607631683 C 40.943458557128906 43.72577607631683 41.655738830566406 43.02177453041077 41.655738830566406 43.02177453041077 C 41.655738830566406 43.02177453041077 54.0186767578125 30.802452087402344 54.0186767578125 30.802452087402344 C 54.0186767578125 30.802452087402344 56.64635467529297 28.205352783203125 56.64635467529297 28.205352783203125 C 56.64635467529297 28.205352783203125 57.706993103027344 27.157354712486267 57.706993103027344 27.157354712486267 C 57.706993103027344 27.157354712486267 69.72168731689453 15.282401084899902 69.72168731689453 15.282401084899902 C 69.72168731689453 15.282401084899902 71.17806243896484 13.842753291130066 71.17806243896484 13.842753291130066 C 71.17806243896484 13.842753291130066 75.10384368896484 17.691865921020508 75.10384368896484 17.691865921020508 C 75.46788024902344 18.051498651504517 75.83203125 18.442776083946228 76.33854675292969 18.442776083946228 C 76.52840423583984 18.442776083946228 76.75007629394531 18.395867466926575 76.98754119873047 18.254769325256348 C 77.77901458740234 17.832591772079468 77.9374008178711 17.159862637519836 77.98477935791016 16.3933162689209 C 78.17475128173828 12.215471029281616 78.3805160522461 8.023106455802917 78.57048797607422 3.8452612161636353 C 78.6338882446289 2.5779839754104614 78.09567260742188 1.999816656112671 76.86085510253906 1.999816656112671 C 76.79756927490234 1.999816656112671 76.73428344726562 1.999816656112671 76.65520477294922 1.999816656112671 C 72.31777954101562 2.203087329864502 67.98046875 2.406358003616333 63.643157958984375 2.610000967979431 C 62.96246337890625 2.6409010887145996 62.29767608642578 2.672173500061035 61.93352508544922 3.470364570617676 C 61.55369567871094 4.268183350563049 61.98101806640625 4.722005605697632 62.440155029296875 5.175827860832214 C 63.753936767578125 6.505649924278259 65.06783294677734 7.835099697113037 66.42910766601562 9.134021639823914 Z M 2.8412704467773438 35.73083519935608 C 1.7174606323242188 36.841750383377075 1.7174606323242188 38.625022411346436 2.8412704467773438 39.73593759536743 C 2.8412704467773438 39.73593759536743 3.5536651611328125 40.4399391412735 3.5536651611328125 40.4399391412735 C 4.107673645019531 40.98757863044739 4.851654052734375 41.269402623176575 5.579841613769531 41.269402623176575 C 6.3080291748046875 41.269402623176575 7.052009582519531 40.98757863044739 7.60601806640625 40.4399391412735 C 7.60601806640625 40.4399391412735 13.051460266113281 35.05810606479645 13.051460266113281 35.05810606479645 C 13.051460266113281 34.948280334472656 13.051460266113281 34.85446310043335 13.051460266113281 34.745009660720825 C 13.051460266113281 30.48972797393799 14.048698425292969 26.46861708164215 15.8375244140625 22.886064529418945 C 15.8375244140625 22.886064529418945 2.8412704467773438 35.73083519935608 2.8412704467773438 35.73083519935608 Z M 77.62074279785156 65.03457379341125 C 77.62074279785156 65.03457379341125 61.347816467285156 48.95087480545044 61.347816467285156 48.95087480545044 C 61.347816467285156 48.95087480545044 60.46135711669922 49.8268746137619 60.46135711669922 49.8268746137619 C 60.46135711669922 49.8268746137619 59.24244689941406 48.622514486312866 59.24244689941406 48.622514486312866 C 62.13928985595703 44.742501735687256 63.864715576171875 39.95521676540375 63.864715576171875 34.76064586639404 C 63.864715576171875 32.17918276786804 63.437278747558594 29.691536903381348 62.661712646484375 27.376261591911316 C 62.661712646484375 27.376261591911316 56.773040771484375 33.19628071784973 56.773040771484375 33.19628071784973 C 56.820533752441406 33.712647795677185 56.85211944580078 34.22901487350464 56.85211944580078 34.76064586639404 C 56.85211944580078 43.803584814071655 49.42810821533203 51.12579655647278 40.294349670410156 51.12579655647278 C 31.144798278808594 51.12579655647278 23.736465454101562 43.78794860839844 23.736465454101562 34.76064586639404 C 23.736465454101562 25.71770691871643 31.16059112548828 18.395867466926575 40.294349670410156 18.395867466926575 C 43.60272216796875 18.395867466926575 46.689537048339844 19.365684509277344 49.26972198486328 21.008230686187744 C 49.26972198486328 21.008230686187744 54.319427490234375 16.017675042152405 54.319427490234375 16.017675042152405 C 50.393646240234375 13.155132532119751 45.54981994628906 11.449296951293945 40.294349670410156 11.449296951293945 C 27.266510009765625 11.449296951293945 16.70807647705078 21.884602785110474 16.70807647705078 34.76064586639404 C 16.70807647705078 47.63668894767761 27.266510009765625 58.07199478149414 40.294349670410156 58.07199478149414 C 45.56561279296875 58.07199478149414 50.441139221191406 56.36690378189087 54.366920471191406 53.47271656990051 C 54.366920471191406 53.47271656990051 55.58583068847656 54.677448987960815 55.58583068847656 54.677448987960815 C 55.58583068847656 54.677448987960815 54.699371337890625 55.55307650566101 54.699371337890625 55.55307650566101 C 54.699371337890625 55.55307650566101 70.97229766845703 71.63677549362183 70.97229766845703 71.63677549362183 C 72.80850219726562 73.45131993293762 75.80033111572266 73.45131993293762 77.63653564453125 71.63677549362183 C 79.45694732666016 69.80659484863281 79.45694732666016 66.84874594211578 77.62074279785156 65.03457379341125 Z"/></g></svg>